<svg width="39" height="933" viewBox="0 0 39 933" fill="none" xmlns="http://www.w3.org/2000/svg">
<path d="M36.3158 615C36.3158 624.736 28.6756 632.5 19.4079 632.5C10.1402 632.5 2.5 624.736 2.5 615C2.5 605.264 10.1402 597.5 19.4079 597.5C28.6756 597.5 36.3158 605.264 36.3158 615Z" stroke="#AF9888" stroke-width="5"/>
<path d="M36.3158 913C36.3158 922.736 28.6756 930.5 19.4079 930.5C10.1402 930.5 2.5 922.736 2.5 913C2.5 903.264 10.1402 895.5 19.4079 895.5C28.6756 895.5 36.3158 903.264 36.3158 913Z" stroke="#AF9888" stroke-width="5"/>
<path d="M19.9687 632L19.9687 895" stroke="#AF9888" stroke-width="5"/>
<path d="M36.3158 20C36.3158 29.7363 28.6756 37.5 19.4079 37.5C10.1402 37.5 2.5 29.7363 2.5 20C2.5 10.2637 10.1402 2.5 19.4079 2.5C28.6756 2.5 36.3158 10.2637 36.3158 20Z" stroke="#AF9888" stroke-width="5"/>
<path d="M36.3158 318C36.3158 327.736 28.6756 335.5 19.4079 335.5C10.1402 335.5 2.5 327.736 2.5 318C2.5 308.264 10.1402 300.5 19.4079 300.5C28.6756 300.5 36.3158 308.264 36.3158 318Z" stroke="#AF9888" stroke-width="5"/>
<path d="M19.9687 37L19.9687 300" stroke="#AF9888" stroke-width="5"/>
<path d="M19.9687 335.5L19.9687 598" stroke="#AF9888" stroke-width="5"/>
</svg>
