<svg width="414" height="414" viewBox="0 0 414 414" fill="none" xmlns="http://www.w3.org/2000/svg">
<rect x="17.5" y="17.5" width="379" height="379" rx="97.5" stroke="#AF9888" stroke-width="35"/>
<path d="M242 290C240 289.2 203.5 264 185.5 251.5C174.5 243.877 184 236 185.5 234.5C187 233 237.236 184.764 239.5 182.5C242 180 241.5 178.5 239 177.5C236.5 176.5 232.5 180 231 181C229.5 182 170 221 166 224.5C162 228 153.5 232.5 143 232C132.5 231.5 112 225 105 221C98 217 99.5 212.5 103.5 210C108.063 207.148 181.333 174.667 218 159.5C234.667 152.333 270 138.2 278 139C288 140 286.738 147.5 287 153C287.4 161.4 272.167 244.833 264.5 285.5C258.5 300.5 244.5 291 242 290Z" fill="#AF9888"/>
</svg>
