<svg width="414" height="414" viewBox="0 0 414 414" fill="none" xmlns="http://www.w3.org/2000/svg">
<rect x="17.5" y="17.5" width="379" height="379" rx="97.5" stroke="#AF9888" stroke-width="35"/>
<path d="M261.375 121.874C270.202 123.63 278.309 127.963 284.672 134.327C289.948 133.551 304.6 129.9 321 121.5C318.167 127.5 308.7 141.4 293.5 149C297.667 149.167 309 147.9 321 141.5C318.5 146.833 311.3 158.8 302.5 164C310.5 259.5 206.999 343 93 283.5C127.4 286.3 158 272 169 264.5C131 263.3 115.5 244.667 112.5 235.5C123.3 236.7 135 232.667 139.5 230.5C108.3 224.1 101.5 199.5 102 188C116 195.6 126.832 197.5 130.499 197.5C94.0988 172.7 100.665 142.833 108.499 131C157.999 191.5 206.999 188 206.999 188V166.5C206.999 157.501 209.667 148.704 214.667 141.222C219.667 133.739 226.773 127.907 235.087 124.464C243.401 121.02 252.549 120.119 261.375 121.874Z" fill="#AF9888"/>
</svg>
