<svg width="414" height="414" viewBox="0 0 414 414" fill="none" xmlns="http://www.w3.org/2000/svg">
<rect x="17.5" y="17.5" width="379" height="379" rx="97.5" stroke="#AF9888" stroke-width="35"/>
<path d="M226.501 204.5C226.501 209.3 228.167 210.167 229.001 210C229.667 210.333 232.6 210 239 206C247 201 268 163.5 272.5 153.5C276.1 145.5 280 144.167 281.5 144.5H304C307.5 144.5 319 141 317 152C315.4 160.8 293.333 195.333 282.5 211.5C280.167 213.167 277.6 218.5 286 226.5C296.5 236.5 319.5 262.5 322 271.5C324 278.7 318.5 280.5 315.5 280.5C308.667 280.667 293.4 280.9 287 280.5C280.6 280.1 275.333 275 273.5 272.5C264.5 260 247.5 246.5 239.5 241.5C231.5 236.5 227.5 240 227 243C226.5 246 227.5 262.5 226 273C224.8 281.4 209.833 281.5 202.5 280.5C115.5 267 93 155 93 150C93 146 97 144.667 99 144.5C106.833 144.5 124.1 144.7 130.5 145.5C138.5 146.5 135.5 155.5 151.5 187.5C167.5 219.5 176.5 220.5 180 221C182.8 221.4 183.833 218.167 184 216.5V179C184 170 182.001 163.5 178.001 158C174.001 152.5 174.001 151.5 174.501 148C174.901 145.2 177.667 144.5 179.001 144.5C191.501 144.667 217.401 144.9 221.001 144.5C224.601 144.1 226.167 148.333 226.501 150.5V204.5Z" fill="#AF9888"/>
</svg>
